<?xml version="1.0" encoding="utf-8"?>
<!-- Generator: Adobe Illustrator 25.3.1, SVG Export Plug-In . SVG Version: 6.00 Build 0)  -->
<svg version="1.1" id="Layer_1" xmlns="http://www.w3.org/2000/svg" xmlns:xlink="http://www.w3.org/1999/xlink" x="0px" y="0px"
	 viewBox="0 0 52 19" style="enable-background:new 0 0 52 19;" xml:space="preserve">
<style type="text/css">
	.st0{fill:#FFFFFF;}
</style>
<g>
	<path class="st0" d="M51.5,12.4c-0.1-0.4-0.4-0.8-0.6-1.2c-0.5-0.6-1.2-1-2-1.3c-0.3-0.1-0.5-0.2-0.8-0.3c-0.2-0.1-0.4-0.1-0.6-0.2
		c-0.2-0.1-0.5-0.1-0.7-0.2c-0.2-0.1-0.5-0.1-0.7-0.2c-0.2-0.1-0.4-0.1-0.6-0.2c-0.2-0.1-0.4-0.1-0.7-0.2c-0.3-0.1-0.6-0.1-0.8-0.2
		c-0.3-0.1-0.7-0.3-1-0.5c-0.5-0.3-0.7-0.8-0.8-1.4c0-0.2-0.1-0.5,0-0.7c0-0.4,0.1-0.7,0.2-1.1C42.5,4.4,42.7,4,43,3.8
		c0.4-0.4,0.8-0.6,1.3-0.7c0.3-0.1,0.6-0.2,1-0.2c0.4,0,0.7,0,1.1,0c0.3,0,0.7,0.1,1,0.2c0.4,0.1,0.8,0.4,1.1,0.6
		c0.8,0.7,1.2,1.6,1.3,2.7c0,0.1,0,0.2,0.1,0.1c0.4,0,0.8,0,1.2,0c0,0,0.1,0,0.1,0c0,0,0-0.1,0-0.1c0-0.5,0-1-0.2-1.5
		c-0.1-0.3-0.2-0.5-0.3-0.8c-0.2-0.5-0.6-0.9-1-1.3c-0.3-0.3-0.7-0.6-1.1-0.8c-0.4-0.2-0.8-0.3-1.2-0.4c-0.3-0.1-0.7-0.1-1-0.2
		c0,0-0.1,0-0.1,0c-0.3,0-0.5,0-0.8,0c0,0,0,0-0.1,0c-0.3,0-0.6,0.1-0.9,0.1c-0.3,0.1-0.6,0.1-0.9,0.2c-0.3,0.1-0.7,0.3-0.9,0.5
		c-0.5,0.3-0.9,0.7-1.2,1.2c-0.3,0.5-0.5,1-0.6,1.5c-0.1,0.3-0.1,0.7-0.1,1c0,0.3,0,0.6,0.1,0.9c0,0.3,0.1,0.7,0.3,1
		c0.2,0.5,0.5,0.9,0.9,1.2c0.5,0.4,1.2,0.7,1.8,0.9c0.4,0.1,0.8,0.2,1.1,0.3c0.4,0.1,0.7,0.2,1.1,0.3c0.4,0.1,0.8,0.2,1.2,0.4
		c0.4,0.1,0.8,0.2,1.1,0.4c0.6,0.2,1.1,0.6,1.5,1.1c0.3,0.3,0.4,0.7,0.5,1.1c0.1,0.6,0,1.2-0.3,1.7c-0.2,0.5-0.6,0.9-1.1,1.2
		c-0.4,0.3-0.8,0.5-1.3,0.6c-0.3,0.1-0.7,0.2-1,0.2c-0.4,0-0.8,0-1.3,0c-0.3,0-0.5-0.1-0.8-0.1c-0.3-0.1-0.5-0.2-0.8-0.2
		c-0.4-0.1-0.7-0.3-1-0.6c-0.6-0.5-1-1.3-1.1-2.1c-0.1-0.4-0.1-0.8-0.1-1.1c0-0.1,0-0.2-0.2-0.2c-0.4,0-0.7,0-1.1,0
		c-0.2,0-0.2,0-0.2,0.2c0,0.2,0,0.5,0,0.7c0,0.4,0.1,0.7,0.2,1.1c0.1,0.4,0.2,0.7,0.4,1c0.3,0.7,0.8,1.3,1.5,1.7
		c0.6,0.4,1.3,0.7,2,0.8c0.4,0.1,0.7,0.1,1.1,0.2c0.8,0,1.6,0.1,2.4-0.1c0.3-0.1,0.7-0.2,1-0.3c0.5-0.2,0.9-0.4,1.3-0.7
		c1-0.8,1.4-1.8,1.6-3C51.8,13.7,51.7,13,51.5,12.4z"/>
	<path class="st0" d="M35.6,15.7C35.5,15.6,35.5,15.6,35.6,15.7c-0.4-0.6-0.7-1.1-1.1-1.7c-0.6-0.9-1.1-1.8-1.7-2.7
		c-0.4-0.6-0.8-1.3-1.2-1.9c-0.4-0.6-0.8-1.3-1.2-2c-0.6-1-1.2-2-1.8-2.9c-0.5-0.8-1.1-1.7-1.6-2.5c0,0-0.1-0.1-0.1-0.1
		c-0.4,0-0.7,0-1.1,0c-0.1,0-0.3,0-0.4,0c0,5.5,0,10.9,0,16.3c0.5,0,0.9,0,1.4,0c0-4.6,0-9.2,0-13.8c0,0,0.1,0.1,0.1,0.1
		c0.4,0.7,0.9,1.4,1.3,2c0.4,0.7,0.9,1.4,1.3,2.1c0.5,0.9,1.1,1.7,1.6,2.6c0.4,0.7,0.9,1.4,1.3,2.1c0.4,0.7,0.8,1.3,1.2,2
		c0.6,1,1.2,1.9,1.8,2.9c0,0.1,0.1,0.1,0.1,0.1c0.5,0,0.9,0,1.4,0c0,0,0.1,0,0.1,0c0-5.4,0-10.9,0-16.3c-0.5,0-0.9,0-1.4,0
		C35.6,6.4,35.6,11,35.6,15.7z"/>
	<path class="st0" d="M22,16.8c0,0-0.1,0-0.1,0c-2.8,0-5.6,0-8.4,0c-0.1,0-0.1,0-0.2,0c0-2.1,0-4.3,0-6.4c2.7,0,5.4,0,8.2,0
		c0-0.4,0-0.8,0-1.1c0-0.2,0-0.2-0.2-0.2c-2.6,0-5.2,0-7.8,0c-0.1,0-0.1,0-0.2,0c0-2,0-3.9,0-5.9c0.1,0,0.1,0,0.2,0
		c2.8,0,5.5,0,8.3,0c0,0,0.1,0,0.1,0C22,3.2,22,3.1,22,3c0-0.3,0-0.6,0-1c0-0.1,0-0.1,0-0.2c-0.1,0-0.1,0-0.2,0c-3.3,0-6.5,0-9.8,0
		c-0.2,0-0.2,0-0.2,0.2c0,5.3,0,10.6,0,15.9c0,0,0,0,0,0.1c0,0.1,0,0.1,0.2,0.1c3.3,0,6.7,0,10,0c0,0,0.1,0,0.1,0c0-0.4,0-0.8,0-1.2
		C22.1,16.9,22.1,16.8,22,16.8z"/>
	<path class="st0" d="M9.4,16.8c-2.6,0-5.2,0-7.8,0c-0.1,0-0.1,0-0.2,0c0-5,0-10,0-15c-0.5,0-0.9,0-1.4,0c0,5.4,0,10.9,0,16.3
		c3.2,0,6.4,0,9.6,0c0-0.4,0-0.8,0-1.1C9.6,16.8,9.6,16.8,9.4,16.8z"/>
</g>
</svg>
